<svg xmlns="http://www.w3.org/2000/svg" width="64" height="64" viewBox="0 0 24 24" fill="#FF0000">
  <path d="M23.498 6.186a2.999 2.999 0 0 0-2.114-2.118C19.412 3.5 12 3.5 12 3.5s-7.412 0-9.384.568a2.999 2.999 0 0 0-2.114 2.118A31.234 31.234 0 0 0 0 12a31.234 31.234 0 0 0 .502 5.814 2.999 2.999 0 0 0 2.114 2.118C4.588 20.5 12 20.5 12 20.5s7.412 0 9.384-.568a2.999 2.999 0 0 0 2.114-2.118A31.234 31.234 0 0 0 24 12a31.234 31.234 0 0 0-.502-5.814zM9.545 15.568V8.432L15.818 12l-6.273 3.568z"></path>
</svg>
